<?xml version="1.0" encoding="utf-8"?>
<!-- Generator: Adobe Illustrator 23.0.0, SVG Export Plug-In . SVG Version: 6.00 Build 0)  -->
<svg version="1.1" id="Layer_1" xmlns="http://www.w3.org/2000/svg" xmlns:xlink="http://www.w3.org/1999/xlink" x="0px" y="0px"
	 viewBox="0 0 100 100" style="enable-background:new 0 0 100 100;" xml:space="preserve">
<style type="text/css">
	.st0{fill:#FFFFFF;}
</style>
<g>
	<path class="st0" d="M55.3,68.3h6c0.8,0,1.4-0.6,1.4-1.4V33.1c0-0.8-0.6-1.4-1.4-1.4h-6c-0.8,0-1.4,0.6-1.4,1.4v33.8
		C53.8,67.7,54.5,68.3,55.3,68.3z"/>
	<path class="st0" d="M38.8,68.3h6c0.8,0,1.4-0.6,1.4-1.4V33.1c0-0.8-0.6-1.4-1.4-1.4h-6c-0.8,0-1.4,0.6-1.4,1.4v33.8
		C37.3,67.7,38,68.3,38.8,68.3z"/>
</g>
</svg>
