<?xml version="1.0" encoding="utf-8"?>
<!-- Generator: Adobe Illustrator 22.0.1, SVG Export Plug-In . SVG Version: 6.00 Build 0)  -->
<svg version="1.1" id="Layer_1" xmlns="http://www.w3.org/2000/svg" xmlns:xlink="http://www.w3.org/1999/xlink" x="0px" y="0px"
	 viewBox="0 0 100 100" style="enable-background:new 0 0 100 100;" xml:space="preserve">
<style type="text/css">
	.st0{fill:none;stroke:#FFFFFF;stroke-width:2;}
	.st1{fill:#FFFFFF;}
</style>
<path class="st0" d="M97.3,50c0,26.4-21.1,47.7-47.3,47.7S2.7,76.4,2.7,50S24,2.3,50,2.3S97.3,23.6,97.3,50z"/>
<g>
	<path class="st1" d="M40.6,29.1c-2.4,0-4.3,1.6-4.3,3.9v34.1c0,2.2,1.8,3.9,4.3,3.9c2.4,0,4.3-1.6,4.3-3.9V32.9
		C45,30.7,43,29.1,40.6,29.1z"/>
	<path class="st1" d="M59.6,29.1c-2.4,0-4.5,1.6-4.5,3.9v34.1c0,2.2,1.8,3.9,4.3,3.9s4.3-1.6,4.3-3.9V32.9
		C63.9,30.7,62.1,29.1,59.6,29.1z"/>
</g>
</svg>
